<svg width="153" height="52" fill="none" xmlns="http://www.w3.org/2000/svg">
    <g clip-path="url(#prefix__clip0)">
        <path
            d="M21.227 51.963C9.581 51.963.108 42.773.108 31.476c0-11.297 9.475-20.487 21.12-20.487h.005A22.078 22.078 0 0140.227.226c10.59 0 19.77 7.656 21.748 17.963 5.07 3.454 8.07 9.095 8.07 15.28 0 10.198-8.296 18.494-18.493 18.494 0 0-14.127 1.425-13.885-13.534h-2.14s1.506 13.682-14.025 13.57l-.275-.036z"
            fill="#F3F2F2" />
        <path
            d="M40.546 35.482a30.451 30.451 0 01-1.205 1.87 1.04 1.04 0 01-.738.305l-4.004.003a1.058 1.058 0 01-.852-.444 22.766 22.766 0 01-1.091-1.732c-1.18.301-4.621.61-4.621.61s.347-5.244 2.075-7.2c-.393-1.915-.488-3.891-.093-5.768.753-3.555 3.197-6.227 5.848-8.88a1.044 1.044 0 011.475 0c2.545 2.544 5.094 5.33 5.843 8.886.399 1.872.305 3.849-.09 5.769 1.73 1.954 2.077 7.196 2.077 7.196s-3.444-.312-4.624-.615z"
            fill="#353431" />
        <path
            d="M38.459 24.363a1.814 1.814 0 10-3.629 0 1.814 1.814 0 003.629 0zM95.186 38.538a8.033 8.033 0 01-.274.377c-.12.158-.406.44-.857.846a9.542 9.542 0 01-1.452 1.074c-.518.313-1.2.59-2.047.834a9.385 9.385 0 01-2.617.367c-2.621 0-4.797-.911-6.526-2.733-1.73-1.821-2.595-4.187-2.595-7.098v-13.1h3.27v13.1c0 1.966.609 3.59 1.828 4.87 1.219 1.28 2.712 1.92 4.48 1.92 1.905 0 3.513-.701 4.823-2.103 1.31-1.403 1.966-3.194 1.966-5.373V19.106h3.293v22.47h-3.291v-3.038zM109.472 51.408h-3.268V19.106h3.268v3.52c.062-.091.173-.232.332-.423.159-.19.487-.514.983-.971a10.56 10.56 0 011.611-1.223c.579-.358 1.322-.678 2.229-.96a9.38 9.38 0 012.8-.423c2.865 0 5.376 1.15 7.532 3.452 2.156 2.301 3.235 5.056 3.235 8.264 0 3.208-1.074 5.96-3.223 8.253s-4.664 3.441-7.544 3.443a9.389 9.389 0 01-2.777-.412c-.891-.275-1.642-.602-2.252-.983a12.818 12.818 0 01-1.588-1.154c-.45-.39-.789-.72-1.018-.995l-.32-.435v13.35zM111.93 36.4c1.638 1.73 3.471 2.595 5.497 2.595 1.936 0 3.669-.843 5.201-2.527 1.531-1.684 2.297-3.726 2.297-6.126 0-2.401-.766-4.443-2.297-6.127-1.532-1.685-3.265-2.526-5.201-2.526-2.027 0-3.859.865-5.497 2.595-1.638 1.73-2.457 3.749-2.458 6.058 0 2.31.82 4.329 2.458 6.058z"
            fill="#F3F2F2" />
        <path
            d="M143.875 22.145h-5.396v19.433h-3.269V22.145h-3.518v-3.04h3.52V14.9c0-2.088.537-3.703 1.611-4.847 1.075-1.143 2.564-1.714 4.469-1.714.562 0 1.121.061 1.669.183s.96.244 1.234.365l.366.16v3.041a6.61 6.61 0 00-3.04-.708c-2.027 0-3.04 1.173-3.04 3.52v4.207h5.396l-.002 3.04zM149.144 10.11c.403-.404.902-.605 1.497-.605.595 0 1.094.201 1.497.605.403.403.605.902.605 1.497 0 .595-.202 1.095-.605 1.498-.403.403-.902.604-1.497.604-.595 0-1.094-.201-1.497-.604-.404-.404-.605-.903-.605-1.498s.201-1.094.605-1.497zm-.126 8.996h3.269v22.47h-3.269v-22.47z"
            fill="#DD6B20" />
    </g>
    <defs>
        <clipPath id="prefix__clip0">
            <path fill="#fff" d="M0 0h153v52H0z" />
        </clipPath>
    </defs>
</svg>
